<svg xmlns="http://www.w3.org/2000/svg" enable-background="new 0 0 24 24" viewBox="0 0 24 24" id="dblp">
  <path d="M2.779,9.45l2.429,9.16c0,0,0.159,0.59,0.714,0.33l7.407-3.48c0,0,0.516-0.24,0.417-0.79l-0.01-0.06l-1.12-4.22L11.96,7.94l-0.664-2.49V5.41c0,0-0.159-0.59-0.833-1l-6.891-4.27c0,0-0.674-0.41-0.516,0.17l1.973,7.42L3.175,8.6C3.175,8.6,2.62,8.86,2.779,9.45z"></path>
  <path d="M21.221,14.58L18.792,5.42c0,0-0.149-0.59-0.714-0.33l-5.553,2.6l0.853,3.2l1.081,4.08l0.01,0.06c0.05,0.47-0.407,0.79-0.407,0.79l-1.864,0.87l0.496,1.89l0.04,0.1c0.069,0.17,0.278,0.6,0.803,0.91l6.891,4.27c0,0,0.674,0.41,0.516-0.17l-1.963-7.4l1.844-0.86C20.825,15.43,21.38,15.17,21.221,14.58z"></path>
</svg>
