<svg viewBox="0 0 543.8 388.3" xmlns="http://www.w3.org/2000/svg">
	<path fill="#e52134" d="M61.2,388.3c-1.1,0-2,0-2.9,0c-10.2,0-20.5,0-30.7,0c-0.9,0-1.4-0.3-1.8-1.1c-9.7-20.5-16.6-42-20.9-64.2c-1.9-9.7-3.2-19.5-4-29.4c-0.8-9.5-1.1-19.1-0.8-28.6c0.3-10.2,1.1-20.4,2.5-30.5c2.9-21,8.2-41.3,15.9-61C31.1,141,49.3,112.1,73,86.7c23.1-24.8,49.9-44.6,80.4-59.5c20.8-10.1,42.5-17.4,65.2-21.9c10.2-2,20.4-3.4,30.7-4.3c10.4-0.9,20.8-1.1,31.3-0.8c10.3,0.3,20.6,1.2,30.8,2.7c26.9,3.9,52.6,11.7,77.2,23.4c26.4,12.6,50.1,29,71.2,49.1c21.7,20.8,39.6,44.5,53.5,71.2c11.5,22,19.8,45.2,24.9,69.5c2.1,10,3.6,20.1,4.6,30.3c1.1,11.2,1.4,22.5,1.1,33.8c-0.8,25.6-5.1,50.7-13,75.1c-3.5,10.9-7.7,21.5-12.6,31.8c-0.4,0.9-0.9,1.3-1.9,1.3c-10.7,0-21.4,0-32.2,0c-0.4,0-0.8,0-1.3,0c31.1-58.6,38.9-119.9,20.3-183.6c-18.6-63.7-57.7-111.9-115.7-144c-88.4-49-199.3-36.4-274.6,30.7c-42,37.4-68.5,83.9-78,139.4C25.1,286.2,34.4,338.7,61.2,388.3z"/>
	<path fill="#e52134" d="M365.5,349.2c-4.9,0.1-9.7-0.3-14.3-1.7c-5.8-1.8-9.8-5.8-12.4-11.1c-2.1-4.4-3.8-9-5.5-13.5c-7.6-20.1-15.2-40.1-22.8-60.2c-0.2-0.4-0.3-0.9-0.5-1.4c0.5,0,0.8,0,1.2,0c8.2,0,16.4,0,24.6,0c0.9,0,1.3,0.3,1.6,1.1c5.7,17.1,11.4,34.1,17.1,51.2c0.2,0.5,0.3,0.9,0.6,1.7c1.1-3.4,2.2-6.4,3.2-9.5c4.8-14.4,9.7-28.9,14.5-43.3c0.3-0.9,0.7-1.2,1.7-1.2c6.2,0.1,12.3,0.1,18.5,0c1,0,1.4,0.3,1.8,1.2c6.1,17.1,12.2,34.1,18.3,51.1c0.2,0.5,0.4,0.9,0.7,1.7c0.8-2.6,1.6-4.9,2.3-7.2c4.8-15.2,9.7-30.3,14.5-45.5c0.3-1,0.7-1.4,1.9-1.4c7.8,0.1,15.5,0,23.3,0c0.4,0,0.9,0,1.5,0c-0.8,2.1-1.5,4.1-2.2,6c-9.9,26.9-19.8,53.8-29.6,80.8c-0.3,0.9-0.7,1.2-1.7,1.2c-3.9,0-7.7-0.4-11.4-1.3c-7.4-1.9-12.4-6.7-15.2-13.6c-3-7.6-5.6-15.3-8.4-22.9c-1.6-4.4-3.2-8.9-4.8-13.3c-0.1-0.3-0.2-0.5-0.5-1.1C377.3,314.6,371.4,331.8,365.5,349.2z"/>
	<path fill="#e52134" d="M215.2,241.4c0,10.1,0,20,0,30c-8,0-15.9,0-23.9,0c0-0.1-0.2-0.2-0.2-0.4c0-3.3,0-6.6,0-9.9c0-0.4,0-0.9,0-1.3c0-29.2,0-58.4,0-87.5c0-3.7-0.6-7.4-1-11.1c-0.1-1.2,0.1-1.7,1.3-2.1c9.8-3.5,19.9-5.7,30.3-6c8.9-0.3,17.5,0.7,25.6,4.6c12.6,6,20.3,16,23.1,29.7c2.1,10.4,1.6,20.8-2.8,30.5c-5.9,12.9-15.7,21.5-29.8,24.5c-7.1,1.5-14.2,1.1-21.3-0.6C216.1,241.6,215.7,241.5,215.2,241.4z M215.2,198c0,7.1,0,14.1,0,21.2c0,0.9,0.3,1.2,1.1,1.5c4.2,1.3,8.4,1.6,12.7,0.9c7.2-1.1,12.2-4.9,14.4-12c0.8-2.5,1.3-5.2,1.5-7.8c0.5-5.4,0.2-10.7-1.8-15.8c-2.4-6.1-6.7-10.2-13.3-11.3c-4.2-0.8-8.4-0.4-12.6,0.6c-2,0.5-2,0.5-2,2.5C215.2,184.6,215.2,191.3,215.2,198z"/>
	<path fill="#e52134" d="M89.9,198.2c0.3-9.6,2.4-18.6,7.8-26.7c7.2-10.7,17.2-16.8,30-18.2c8.1-0.9,16.1-0.3,23.6,2.9c11.2,4.6,18.8,12.8,22.9,24c4.8,13.4,4.6,26.8-1.6,39.7c-6.1,12.7-16.3,20.3-30.3,22.6c-9.8,1.6-19.5,0.9-28.5-3.6c-12.5-6.1-19.8-16.3-22.5-29.8C90.5,205.5,90.3,201.8,89.9,198.2z M116.3,196.1c0,8,0.9,12.6,2.8,16.7c3.5,7.4,10.6,10.8,18.7,8.9c5.1-1.2,8.3-4.5,10.5-9c1.8-3.6,2.5-7.6,2.7-11.6c0.4-6.3-0.3-12.5-3.3-18.3c-3.1-5.9-8.1-8.8-14.8-8.6c-6.2,0.2-10.6,3.3-13.4,8.7C117,187.8,116.4,193,116.3,196.1z"/>
	<path fill="#e52134" d="M360.5,207.5c-17.6,0-35.1,0-52.7,0c0.1,0.5,0.1,1,0.2,1.4c1.8,7.5,7,12,14.7,12.9c8.6,0.9,16.8-0.4,24.7-3.7c0.7-0.3,1.3-0.6,2.2-0.9c2.6,6.4,5.2,12.8,7.9,19.4c-3,1.1-5.8,2.2-8.7,3.2c-8,2.6-16.2,3.9-24.6,3.6c-14-0.5-25.7-5.7-34.2-17.2c-4-5.5-6.3-11.7-7.3-18.4c-1.4-9.7-1-19.2,2.3-28.5c3.7-10.2,10.1-18.2,20.2-22.8c6.2-2.8,12.8-3.7,19.5-3.4c5.9,0.2,11.5,1.3,16.8,4c9.8,4.9,15.8,13,18.8,23.4c2,7.3,2.3,14.6,1.1,22.1C361,204.1,360.7,205.7,360.5,207.5z M307.7,187.7c9.8,0,19.5,0,29.2,0c-0.4-8.6-5.6-13.9-13.8-14.3C315,173.1,307.4,180.1,307.7,187.7z"/>
	<path fill="#e52134" d="M255,314c0.6,3.5,1.8,6.5,4.1,9c2.9,3.2,6.7,4.7,10.9,5.2c8.9,1,17.3-0.5,25.5-4.1c0.3-0.1,0.7-0.3,1-0.4c0.1,0,0.2,0,0.4,0c2.6,6.3,5.2,12.7,7.8,19.1c-4.6,2-9.1,3.6-13.8,4.7c-6.4,1.6-12.9,2.4-19.5,2.1c-13.6-0.5-25.1-5.3-33.6-16.3c-4.5-5.8-7-12.5-8-19.7c-1.2-8.9-0.9-17.8,1.9-26.4c3.9-11.8,11.1-20.8,23-25.3c6.7-2.5,13.7-2.9,20.8-2.1c6.8,0.7,13.2,2.9,18.7,7.1c7.6,5.8,12,13.6,13.9,22.9c1.5,7,1.3,14,0.1,21.1c-0.1,0.6-0.3,1.3-0.3,1.9c0,1.1-0.5,1.3-1.5,1.3c-16.6,0-33.2,0-49.8,0C256.1,314,255.6,314,255,314z M254.9,294.2c9.7,0,19.5,0,29.2,0c-0.6-8.8-5.8-14-14-14.2C262.1,279.7,255.1,286.2,254.9,294.2z"/>
	<path fill="#e52134" d="M453,241.4c-8.1,0-16,0-24.1,0c0-0.6,0-1.1,0-1.6c0-17.5,0-35.1,0-52.6c0-1.4-0.1-2.8-0.4-4.2c-1.1-4.9-4.5-7.4-9.3-8.2c-6.3-1.1-12.3,0.3-18.2,2.4c-0.3,0.1-0.6,0.5-0.6,0.8c0,10.6,0,21.1,0,31.7c0,10.1,0,20.1,0,30.2c0,0.5,0,1,0,1.5c-8,0-15.9,0-24,0c0-0.5-0.1-1-0.1-1.6c0-21.3,0.1-42.5-0.1-63.8c0-4.3-0.7-8.6-1.2-12.9c-0.1-0.9,0-1.4,1-1.7c9-3.1,18.1-6,27.6-7.5c10.7-1.7,21.4-1.6,31.6,2.3c10.1,3.8,15.7,11.4,17.2,22c0.3,2.3,0.4,4.7,0.4,7c0,18.2,0,36.5,0,54.7C453,240.4,453,240.9,453,241.4z"/>
	<path fill="#e52134" d="M182.2,261.2c-1.5,3.5-2.9,6.9-4.3,10.2c-10.8,25.5-21.5,51-32.3,76.5c-0.4,0.9-0.8,1.2-1.8,1.2c-4.5-0.1-8.9-0.3-13.1-1.7c-5.6-1.8-9.5-5.6-11.9-10.8c-2.8-5.9-5.2-12-7.8-18c-7.9-18.6-15.7-37.2-23.5-55.8c-0.2-0.5-0.4-1-0.6-1.6c0.5,0,0.9-0.1,1.4-0.1c8.1,0,16.2,0,24.4,0c1,0,1.4,0.3,1.8,1.2c6.5,17.3,13.1,34.5,19.7,51.8c0.1,0.4,0.3,0.7,0.5,1.3c0.2-0.5,0.4-0.8,0.5-1.1c6.7-17.2,13.5-34.5,20.2-51.7c0.5-1.2,1-1.6,2.3-1.6c7.6,0.1,15.3,0,22.9,0C181,261.2,181.5,261.2,182.2,261.2z"/>
	<path fill="#e52134" d="M215.1,347.9c-8,0-15.9,0-23.9,0c0-20.6,0-41.2,0-61.9c8,0,15.9,0,23.9,0C215.1,306.7,215.1,327.2,215.1,347.9z"/>
</svg>
